<svg width="633" height="41" viewBox="0 0 633 41" fill="none" xmlns="http://www.w3.org/2000/svg">
<path d="M101.74 36.8076C89.3424 36.8076 89.124 27.3748 89.124 23.7429V6.56872C89.124 5.53101 89.0408 4.15085 91.2458 4.15085H97.663C99.7432 4.15085 99.6184 5.6244 99.6184 6.56872V23.7429C99.6184 24.957 99.8368 28.2465 104.34 28.2465H115.095C119.515 28.2465 119.775 24.957 119.775 23.7429V6.56872C119.775 5.61402 119.64 4.15085 121.73 4.15085H128.189C130.529 4.15085 130.311 5.6244 130.311 6.56872V23.7429C130.311 27.3748 130.093 36.8076 117.653 36.8076H101.74Z" fill="black"/>
<path d="M161.128 34.7322C156.75 28.8484 150.509 21.4495 144.134 13.6252V34.5143C144.134 35.4171 144.352 36.8076 142.189 36.8076H136.208C134.045 36.8076 134.305 35.4171 134.305 34.5143V6.56872C134.305 5.61402 134.222 4.15085 136.208 4.15085H147.867C151.164 4.15085 155.845 10.7715 158.923 15.1402C161.305 18.4713 165.684 23.4834 168.638 27.2503V6.56872C168.638 5.61402 168.513 4.15085 170.676 4.15085H177.187C179.267 4.15085 179.132 5.6244 179.132 6.56872V36.8076H167.171C164.613 36.8076 163.489 36.9841 161.149 34.7322H161.128Z" fill="black"/>
<path d="M210.418 28.1946C215.66 28.1946 215.275 23.1825 215.275 20.8891C215.275 13.1893 213.111 12.8884 209.637 12.8884H193.163V28.1946H210.418ZM183.064 36.8076V4.19236H211.936C213.715 4.19236 225.551 3.97444 225.551 16.3855C225.551 28.7965 226.934 36.8076 212.196 36.8076H196.637L193.256 29.9691V36.8076H183.064Z" fill="black"/>
<path d="M236.856 4.41028H263.472C265.729 4.41028 265.427 5.88383 265.427 8.60263C265.427 11.1554 265.77 12.5874 263.472 12.5874H242.441C241.88 12.5874 239.966 12.2865 239.966 14.2789C239.966 16.2713 239.571 17.0496 241.703 17.0496H260.3C260.3 17.0496 262.983 22.1552 263.295 23.0165C263.732 23.7947 263.68 24.5315 262.036 24.5315H242.785L239.789 18.7307V27.2918C239.789 29.2842 241.568 28.8899 242.088 28.8899H263.94C266.103 28.8899 265.937 30.405 265.937 32.8643C265.937 35.5001 266.114 36.9737 263.94 36.9737H236.284C233.986 36.9737 229.482 36.2784 229.482 29.0974V11.1139C229.482 9.25639 230.481 4.41028 236.856 4.41028Z" fill="black"/>
<path d="M295.818 12.8054H282.859C280.685 12.8054 280.779 13.5421 280.779 14.1855V20.0278H294.133C300.592 20.0278 300.592 18.4298 300.592 16.7383C300.592 13.3657 300.332 12.8054 295.818 12.8054ZM272.624 4.19236H301.757C305.657 4.19236 311.336 4.15085 311.336 14.6525C311.336 21.5325 309.859 21.875 306.739 23.9919C311.981 24.8947 311.294 31.6087 311.294 35.0643C311.294 36.8388 310.639 36.7973 310.119 36.7973H301.58C299.802 36.7973 300.238 33.9851 300.238 32.5115C300.238 28.4852 297.981 28.6616 297.118 28.6616H284.544C283.327 26.5862 280.987 21.9165 280.987 21.9165V35.4586C280.987 36.6312 279.822 36.7973 279.385 36.7973H270.804C271.283 36.7973 269.941 36.8803 269.941 35.718V7.00456C269.941 4.97064 271.376 4.19236 272.624 4.19236Z" fill="black"/>
<path d="M358.025 13.4487C357.547 14.2685 352.991 22.4872 352.648 23.224C352.429 23.5664 352.648 23.7013 353.126 23.7013H363.142C363.704 23.7013 363.839 23.5768 363.662 23.224C363.319 22.4872 358.982 14.2685 358.545 13.4072C358.42 13.1893 358.108 13.1893 358.025 13.4487ZM361.499 4.41028C363.621 4.41028 365.701 5.36497 367.958 9.73374C369.476 12.8469 380.054 31.92 382.259 35.9048V36.9841H371.244L368.083 31.2766H354.686C354.686 31.2766 352.429 26.1296 351.785 24.6975C350.963 26.0362 346.543 34.4313 345.024 36.9841H333.968V36.2888C336.225 32.0445 351.618 4.41028 351.618 4.41028H361.499Z" fill="black"/>
<path d="M411.142 12.8054H398.182C396.019 12.8054 396.102 13.5421 396.102 14.1855V20.0278H409.446C415.905 20.0278 415.905 18.4298 415.905 16.7383C415.905 13.3657 415.645 12.8054 411.131 12.8054H411.142ZM387.948 4.19236H417.08C420.981 4.19236 426.66 4.15085 426.66 14.6525C426.66 21.5325 425.183 21.875 422.062 23.9919C427.304 24.8947 426.618 31.6087 426.618 35.0643C426.618 36.8388 425.973 36.7973 425.453 36.7973H416.914C415.136 36.7973 415.572 33.9851 415.572 32.5115C415.572 28.4852 413.315 28.6616 412.452 28.6616H399.878C398.661 26.5862 396.321 21.9165 396.321 21.9165V35.4586C396.321 36.6312 395.145 36.7973 394.719 36.7973H386.138C386.617 36.7973 385.275 36.8803 385.275 35.718V7.00456C385.275 4.97064 386.7 4.19236 387.958 4.19236H387.948Z" fill="black"/>
<path d="M452.11 36.8076C449.947 32.7398 443.914 21.5429 439.837 14.1855V34.5143C439.837 35.4171 439.962 36.8076 437.892 36.8076H431.995C429.78 36.8076 429.957 35.4171 429.957 34.5143V6.56872C429.957 5.61402 429.832 4.19236 431.995 4.19236H442.177C443.696 4.19236 445.87 3.84991 448.293 8.68565C450.113 12.5771 453.972 20.6297 456.614 24.9051C459.349 20.6297 463.291 12.5771 465.111 8.68565C467.493 3.83953 469.625 4.19236 471.31 4.19236H481.461C483.541 4.19236 483.323 5.6244 483.323 6.56872V34.5143C483.323 35.4171 483.624 36.8076 481.461 36.8076H475.522C473.359 36.8076 473.525 35.4171 473.525 34.5143V14.1855C469.407 21.5429 463.426 32.7398 461.169 36.8076H452.11Z" fill="black"/>
<path d="M515.836 28.4956C520.734 28.4956 520.557 23.4419 520.557 20.059C520.557 17.0289 521.254 12.2761 514.879 12.2761H504.083C497.749 12.2761 498.487 17.0392 498.487 20.059C498.487 23.4315 498.186 28.4956 503.084 28.4956H515.836ZM496.417 36.8907C486.755 36.8907 487.182 26.555 487.182 19.8514C487.182 13.7082 486.485 4.10934 498.581 4.02632H520.048C532.186 4.02632 531.405 13.7601 531.405 19.8514C531.405 26.555 531.884 36.8907 522.086 36.8907H496.417Z" fill="black"/>
<path d="M547.568 36.8076C535.171 36.8076 534.952 27.3748 534.952 23.7429V6.56872C534.952 5.53101 534.869 4.15085 537.074 4.15085H543.491C545.571 4.15085 545.436 5.6244 545.436 6.56872V23.7429C545.436 24.957 545.655 28.2465 550.158 28.2465H560.912C565.333 28.2465 565.593 24.957 565.593 23.7429V6.56872C565.593 5.61402 565.468 4.15085 567.548 4.15085H574.007C576.347 4.15085 576.129 5.6244 576.129 6.56872V23.7429C576.129 27.3748 575.91 36.8076 563.471 36.8076H547.558H547.568Z" fill="black"/>
<path d="M593.259 12.8054C591.095 12.8054 591.179 13.5421 591.179 14.1855V20.0278H604.533C610.992 20.0278 610.992 18.4298 610.992 16.7383C610.992 13.3657 610.732 12.8054 606.228 12.8054H593.259ZM612.157 4.19236C616.057 4.19236 621.736 4.15085 621.736 14.6525C621.736 21.5325 620.259 21.875 617.139 23.9919C622.381 24.8947 621.694 31.6087 621.694 35.0643C621.694 36.8388 621.05 36.7973 620.519 36.7973H611.98C610.202 36.7973 610.638 33.9851 610.638 32.5115C610.638 28.4852 608.381 28.6616 607.518 28.6616H594.944C593.727 26.5862 591.387 21.9165 591.387 21.9165V35.4586C591.387 36.6312 590.211 36.7973 589.774 36.7973H581.194C581.672 36.7973 580.331 36.8803 580.331 35.718V7.00456C580.331 4.97064 581.755 4.19236 583.014 4.19236H612.157Z" fill="black"/>
<path d="M627.956 32.4181H629.141C629.745 32.4181 629.849 32.2521 629.849 31.9823V31.92C629.849 31.5776 629.745 31.3804 629.141 31.3804H627.956V32.4285V32.4181ZM627.071 31.3078C627.071 30.7682 627.134 30.6333 627.644 30.6333H629.505C630.389 30.6333 630.857 31.3389 630.857 32.0549C630.857 32.8021 630.525 33.3728 629.776 33.3728C630.015 33.8087 630.348 34.452 630.587 34.8568C630.92 35.469 630.015 35.6039 629.88 35.469C629.339 34.6907 628.996 34.0162 628.632 33.4766H627.987V35.0954C627.987 35.5313 627.612 35.5728 627.404 35.5728C627.072 35.5728 627.071 35.2303 627.071 34.9605V31.3078ZM628.725 36.2058C630.618 36.2058 631.97 34.7841 631.97 32.9266C631.97 31.0691 630.587 29.7512 628.621 29.7512C626.957 29.7512 625.407 31.2351 625.407 32.9266C625.407 34.7841 626.864 36.2058 628.725 36.2058ZM624.503 32.9266C624.503 30.5917 626.604 28.7342 628.736 28.7342C631.138 28.7342 633 30.5917 633 32.9266C633 35.2615 631.076 37.2435 628.632 37.2435C626.187 37.2435 624.503 35.2511 624.503 32.9266Z" fill="black"/>
<path d="M56.8193 20.4948C64.4534 17.143 69.4458 12.1101 69.7058 6.52721C69.7058 6.52721 67.6985 4.97064 61.1876 2.5839C55.4672 0.487725 51.1093 0 51.1093 0L51.1301 12.4422C51.1301 14.2997 50.3812 16.1987 48.9771 17.8798C44.6608 16.8421 39.8765 16.2609 34.8737 16.2609C29.8605 16.2609 25.0866 16.8524 20.7599 17.8902C19.3454 16.2091 18.5965 14.31 18.5965 12.4525L18.6173 0.0103771C18.6173 0.0103771 14.2594 0.487725 8.53902 2.59428C2.01775 4.98102 0 6.52721 0 6.52721C0.270419 12.1101 5.26278 17.1534 12.8969 20.5052C5.26278 23.857 0.28082 28.8899 0 34.4728C0 34.4728 2.01775 36.0294 8.51821 38.4161C14.2386 40.5123 18.5965 41 18.5965 41L18.5757 28.5578C18.5757 26.7003 19.3246 24.8013 20.7391 23.1202C25.0554 24.1579 29.8293 24.7391 34.8425 24.7391C39.8557 24.7391 44.64 24.1579 48.9563 23.1098C50.3708 24.7909 51.1197 26.69 51.1197 28.5475L51.0989 40.9896C51.0989 40.9896 55.4672 40.5123 61.1772 38.4057C67.6881 36.019 69.6954 34.4624 69.6954 34.4624C69.425 28.8795 64.4326 23.8466 56.7985 20.4948H56.8193ZM34.8529 23.2966H34.7073C30.183 23.2966 26.5011 22.1863 23.7969 20.5052C26.5011 18.8137 30.1934 17.7034 34.7177 17.7034H34.9985C39.5229 17.7034 43.2047 18.8137 45.9089 20.5052C43.2047 22.1967 39.5124 23.307 34.9881 23.307H34.8529V23.2966Z" fill="black"/>
</svg>
