<svg width="18" height="23" viewBox="0 0 18 23" fill="none" xmlns="http://www.w3.org/2000/svg">
<path d="M9.78014 11.8959C9.78014 11.4754 9.42113 11.1369 9.00065 11.1369C8.58013 11.1369 8.22116 11.4754 8.22116 11.8959V15.619L8.2827 17.2907L7.4109 16.3882L6.48783 15.4446C6.34423 15.2908 6.12885 15.2087 5.93398 15.2087C5.51346 15.2087 5.21603 15.5062 5.21603 15.9164C5.21603 16.1523 5.30834 16.3267 5.47244 16.4702L8.42629 19.1882C8.64167 19.3831 8.80577 19.4549 9.00065 19.4549C9.1955 19.4549 9.3596 19.3831 9.57499 19.1882L12.5288 16.4702C12.6929 16.3267 12.7853 16.1523 12.7853 15.9164C12.7853 15.5062 12.4776 15.2087 12.0673 15.2087C11.8622 15.2087 11.657 15.2908 11.5135 15.4446L10.5904 16.3882L9.71861 17.2907L9.78014 15.619V11.8959ZM3.55449 22.4087H14.4468C16.5699 22.4087 17.6263 21.3318 17.6263 19.1984V9.88561C17.6263 8.56254 17.4725 7.98818 16.652 7.14716L11.0006 1.3933C10.2212 0.593305 9.57499 0.418945 8.42629 0.418945H3.55449C1.44167 0.418945 0.375 1.50613 0.375 3.63946V19.1984C0.375 21.342 1.43141 22.4087 3.55449 22.4087ZM3.62628 20.7574C2.56987 20.7574 2.02628 20.1934 2.02628 19.1677V3.67023C2.02628 2.65485 2.56987 2.07023 3.63654 2.07023H8.20065V8.02921C8.20065 9.32154 8.8468 9.95738 10.1288 9.95738H15.975V19.1677C15.975 20.1934 15.4314 20.7574 14.3648 20.7574H3.62628ZM10.3135 8.4087C9.9032 8.4087 9.74933 8.2446 9.74933 7.83434V2.38818L15.657 8.4087H10.3135Z" fill="black"/>
</svg>
