<svg width="20" height="19" viewBox="0 0 20 19" fill="none" xmlns="http://www.w3.org/2000/svg">
<path d="M3.15103 18.4189H16.859C18.9563 18.4189 20 17.4032 20 15.3912V3.46614C20 1.45421 18.9563 0.438477 16.859 0.438477H3.15103C1.05369 0.438477 0 1.44444 0 3.46614V15.3912C0 17.4129 1.05369 18.4189 3.15103 18.4189ZM3.0005 16.8464C2.10738 16.8464 1.61565 16.3875 1.61565 15.4791V6.26917C1.61565 5.37065 2.10738 4.90185 3.0005 4.90185H16.9894C17.8826 4.90185 18.3844 5.37065 18.3844 6.26917V15.4791C18.3844 16.3875 17.8826 16.8464 16.9894 16.8464H3.0005ZM8.04816 8.40808H8.64019C8.99146 8.40808 9.10184 8.31041 9.10184 7.96857V7.39234C9.10184 7.05051 8.99146 6.94307 8.64019 6.94307H8.04816C7.69693 6.94307 7.57651 7.05051 7.57651 7.39234V7.96857C7.57651 8.31041 7.69693 8.40808 8.04816 8.40808ZM11.3798 8.40808H11.9719C12.3231 8.40808 12.4435 8.31041 12.4435 7.96857V7.39234C12.4435 7.05051 12.3231 6.94307 11.9719 6.94307H11.3798C11.0286 6.94307 10.9082 7.05051 10.9082 7.39234V7.96857C10.9082 8.31041 11.0286 8.40808 11.3798 8.40808ZM14.7115 8.40808H15.3035C15.6547 8.40808 15.7752 8.31041 15.7752 7.96857V7.39234C15.7752 7.05051 15.6547 6.94307 15.3035 6.94307H14.7115C14.3602 6.94307 14.2498 7.05051 14.2498 7.39234V7.96857C14.2498 8.31041 14.3602 8.40808 14.7115 8.40808ZM4.7165 11.6018H5.29854C5.65981 11.6018 5.77019 11.5041 5.77019 11.1623V10.586C5.77019 10.2442 5.65981 10.1466 5.29854 10.1466H4.7165C4.35524 10.1466 4.24485 10.2442 4.24485 10.586V11.1623C4.24485 11.5041 4.35524 11.6018 4.7165 11.6018ZM8.04816 11.6018H8.64019C8.99146 11.6018 9.10184 11.5041 9.10184 11.1623V10.586C9.10184 10.2442 8.99146 10.1466 8.64019 10.1466H8.04816C7.69693 10.1466 7.57651 10.2442 7.57651 10.586V11.1623C7.57651 11.5041 7.69693 11.6018 8.04816 11.6018ZM11.3798 11.6018H11.9719C12.3231 11.6018 12.4435 11.5041 12.4435 11.1623V10.586C12.4435 10.2442 12.3231 10.1466 11.9719 10.1466H11.3798C11.0286 10.1466 10.9082 10.2442 10.9082 10.586V11.1623C10.9082 11.5041 11.0286 11.6018 11.3798 11.6018ZM14.7115 11.6018H15.3035C15.6547 11.6018 15.7752 11.5041 15.7752 11.1623V10.586C15.7752 10.2442 15.6547 10.1466 15.3035 10.1466H14.7115C14.3602 10.1466 14.2498 10.2442 14.2498 10.586V11.1623C14.2498 11.5041 14.3602 11.6018 14.7115 11.6018ZM4.7165 14.8052H5.29854C5.65981 14.8052 5.77019 14.6978 5.77019 14.356V13.7797C5.77019 13.4379 5.65981 13.3402 5.29854 13.3402H4.7165C4.35524 13.3402 4.24485 13.4379 4.24485 13.7797V14.356C4.24485 14.6978 4.35524 14.8052 4.7165 14.8052ZM8.04816 14.8052H8.64019C8.99146 14.8052 9.10184 14.6978 9.10184 14.356V13.7797C9.10184 13.4379 8.99146 13.3402 8.64019 13.3402H8.04816C7.69693 13.3402 7.57651 13.4379 7.57651 13.7797V14.356C7.57651 14.6978 7.69693 14.8052 8.04816 14.8052ZM11.3798 14.8052H11.9719C12.3231 14.8052 12.4435 14.6978 12.4435 14.356V13.7797C12.4435 13.4379 12.3231 13.3402 11.9719 13.3402H11.3798C11.0286 13.3402 10.9082 13.4379 10.9082 13.7797V14.356C10.9082 14.6978 11.0286 14.8052 11.3798 14.8052Z" fill="black"/>
</svg>
