<svg width="20" height="22" viewBox="0 0 20 22" fill="none" xmlns="http://www.w3.org/2000/svg">
<path d="M11.5645 11.4098C11.5645 10.4166 11.2367 9.84761 10.3784 9.34614L2.65413 4.8813C1.69943 4.34127 0.484375 4.68843 0.484375 6.04814V15.0357C0.484375 16.0579 0.744745 16.6076 1.68979 17.1476L9.2405 21.5161C10.6003 22.2971 11.5645 21.7668 11.5645 20.1563V11.4098ZM9.56842 10.7348C9.87701 10.918 9.99271 11.053 9.99271 11.4677V19.9153C9.99271 20.0117 9.93486 20.0502 9.84804 20.002L2.4709 15.7397C2.14302 15.5468 2.05624 15.3925 2.05624 15.0068V6.57852C2.05624 6.49173 2.12374 6.44352 2.22018 6.49173L9.56842 10.7348ZM10.716 17.5815L13.3389 19.1052C14.6986 19.8767 15.663 19.3559 15.663 17.7455V8.99896C15.663 8.00573 15.3448 7.43678 14.4768 6.92568L6.75254 2.47046C5.79785 1.92079 4.58279 2.2776 4.58279 3.63731V6.96426L6.15465 7.78394V4.16769C6.15465 4.0809 6.2318 4.02304 6.31859 4.0809L13.6668 8.32394C13.9754 8.5072 14.0911 8.64223 14.0911 9.05689V17.5044C14.0911 17.6009 14.0332 17.6298 13.9465 17.5815L10.716 15.7204V17.5815ZM14.8915 15.5565L17.1866 16.8776C18.5463 17.6587 19.5107 17.138 19.5107 15.5179V6.78103C19.5107 5.77812 19.1828 5.20917 18.3245 4.70771L10.6003 0.242854C9.64553 -0.297172 8.43048 0.0499876 8.43048 1.41934V4.46663L10.0023 5.24774V1.94972C10.0023 1.85329 10.0698 1.80507 10.1663 1.86293L17.5145 6.106C17.8231 6.28922 17.9388 6.42423 17.9388 6.8389V15.2865C17.9388 15.3829 17.8809 15.4118 17.7942 15.3636L14.8915 13.6857V15.5565Z" fill="black"/>
</svg>
