<svg width="18" height="21" viewBox="0 0 18 21" fill="none" xmlns="http://www.w3.org/2000/svg">
<path d="M1.54688 20.419C2.01562 20.419 2.41406 20.2315 2.88281 19.9619L16.5468 12.0635C17.5195 11.4893 17.8594 11.1143 17.8594 10.4932C17.8594 9.87207 17.5195 9.49707 16.5468 8.93457L2.88281 1.02441C2.41406 0.754883 2.01562 0.579102 1.54688 0.579102C0.679687 0.579102 0.140625 1.23535 0.140625 2.25488V18.7315C0.140625 19.751 0.679687 20.419 1.54688 20.419ZM2.14454 18.1807C2.07422 18.1807 2.02734 18.1338 2.02734 18.0401V2.94628C2.02734 2.85254 2.07422 2.80566 2.14454 2.80566C2.19141 2.80566 2.23829 2.8291 2.28516 2.86425L15.2578 10.3643C15.3164 10.3994 15.3633 10.4346 15.3633 10.4932C15.3633 10.5518 15.3164 10.5987 15.2578 10.6221L2.28516 18.1338C2.23829 18.1573 2.19141 18.1807 2.14454 18.1807Z" fill="black"/>
</svg>
