<svg width="22" height="19" viewBox="0 0 22 19" fill="none" xmlns="http://www.w3.org/2000/svg">
<path d="M0.875 6.69891C0.875 10.8754 4.51511 14.9832 10.2659 18.5126C10.48 18.6401 10.7859 18.7773 11 18.7773C11.2141 18.7773 11.52 18.6401 11.7443 18.5126C17.4849 14.9832 21.125 10.8754 21.125 6.69891C21.125 3.22832 18.6473 0.777344 15.3437 0.777344C13.4573 0.777344 11.9279 1.64009 11 2.96362C10.0925 1.64989 8.54267 0.777344 6.65634 0.777344C3.35272 0.777344 0.875 3.22832 0.875 6.69891ZM2.51662 6.69891C2.51662 4.09107 4.27039 2.35578 6.63595 2.35578C8.55287 2.35578 9.65408 3.50283 10.3066 4.48323C10.5819 4.87538 10.7553 4.98323 11 4.98323C11.2447 4.98323 11.3977 4.86558 11.6934 4.48323C12.3969 3.52244 13.4573 2.35578 15.364 2.35578C17.7296 2.35578 19.4834 4.09107 19.4834 6.69891C19.4834 10.346 15.4762 14.2773 11.2141 17.0028C11.1122 17.0715 11.0408 17.1205 11 17.1205C10.9592 17.1205 10.8878 17.0715 10.7961 17.0028C6.52379 14.2773 2.51662 10.346 2.51662 6.69891Z" fill="black"/>
</svg>
