<svg width="19" height="16" viewBox="0 0 19 16" fill="none" xmlns="http://www.w3.org/2000/svg">
<path d="M10.3763 3.40393C10.0218 3.40393 9.73171 3.67844 9.73171 4.02354V8.40003C9.73171 8.5804 9.78815 8.73728 9.92511 8.90982L11.9151 11.4667C12.181 11.8039 12.5516 11.8589 12.882 11.6392C13.1801 11.4353 13.2042 11.0667 12.9625 10.7451L10.2796 7.22357L11.0128 9.41961V4.02354C11.0128 3.67844 10.7308 3.40393 10.3763 3.40393ZM10.6824 16C15.1701 16 18.9004 12.3687 18.9004 8C18.9004 3.62354 15.1701 0 10.6824 0C6.18674 0 2.4645 3.61569 2.4645 7.99217H3.83416C3.83416 4.29021 6.87962 1.34118 10.6824 1.34118C14.4852 1.34118 17.5307 4.29805 17.5307 8C17.5307 11.702 14.4852 14.6824 10.6824 14.6667C8.38625 14.6588 6.37204 13.5765 5.13935 11.9059C4.88959 11.5843 4.51092 11.4823 4.17254 11.6784C3.85026 11.8745 3.76164 12.3059 4.03557 12.651C5.56637 14.651 7.96727 16 10.6824 16ZM1.47351 6.48629C0.893421 6.48629 0.748399 6.87059 1.06261 7.30984L2.86734 9.80392C3.13321 10.1647 3.51993 10.1569 3.77775 9.80392L5.58248 7.30201C5.88864 6.87059 5.74362 6.48629 5.17158 6.48629H1.47351Z" fill="black"/>
</svg>
