<svg width="20" height="22" viewBox="0 0 20 22" fill="none" xmlns="http://www.w3.org/2000/svg">
<path d="M19 19.7302V8.93651C19 8.73937 18.9593 8.54494 18.8812 8.36862C18.8031 8.19229 18.6897 8.03892 18.55 7.92063L10.675 1.25397C10.4803 1.08911 10.2434 1 10 1C9.75658 1 9.51973 1.08911 9.325 1.25397L1.45 7.92063C1.31028 8.03892 1.19688 8.19229 1.11877 8.36862C1.04066 8.54494 1 8.73937 1 8.93651V19.7302C1 20.0669 1.11853 20.3899 1.32951 20.6281C1.54048 20.8662 1.82663 21 2.125 21H17.875C18.1734 21 18.4595 20.8662 18.6705 20.6281C18.8815 20.3899 19 20.0669 19 19.7302Z" stroke="black" stroke-width="1.5" stroke-linecap="round" stroke-linejoin="round"/>
</svg>
