<svg width="16" height="17" viewBox="0 0 16 17" fill="none" xmlns="http://www.w3.org/2000/svg">
<path d="M8.00387 16.4921C12.3782 16.4921 15.9999 12.8626 15.9999 8.49605C15.9999 4.12175 12.3704 0.5 7.99604 0.5C3.62956 0.5 0.0078125 4.12175 0.0078125 8.49605C0.0078125 12.8626 3.6374 16.4921 8.00387 16.4921ZM8.00387 15.1595C4.30374 15.1595 1.34833 12.1962 1.34833 8.49605C1.34833 4.79593 4.2959 1.83268 7.99604 1.83268C11.6962 1.83268 14.6673 4.79593 14.6673 8.49605C14.6673 12.1962 11.704 15.1595 8.00387 15.1595ZM12.0254 8.48823C12.0254 8.31577 11.9627 8.19034 11.8059 8.03354L9.15627 5.36819C9.05432 5.26628 8.91324 5.21141 8.74861 5.21141C8.42718 5.21141 8.18422 5.45443 8.18422 5.77584C8.18422 5.9483 8.25472 6.08941 8.35667 6.19916L9.33655 7.17123L10.2851 7.96297L8.63101 7.90028H4.53892C4.20183 7.90028 3.95097 8.14331 3.95097 8.48823C3.95097 8.82531 4.20183 9.06834 4.53892 9.06834H8.63101L10.2851 9.01349L9.33655 9.80526L8.35667 10.7773C8.2469 10.8792 8.18422 11.0203 8.18422 11.1928C8.18422 11.5142 8.42718 11.765 8.74861 11.765C8.91324 11.765 9.05432 11.7023 9.15627 11.6005L11.8059 8.94291C11.9549 8.80183 12.0254 8.66068 12.0254 8.48823Z" fill="black"/>
</svg>
