<svg width="14" height="11" viewBox="0 0 14 11" fill="none" xmlns="http://www.w3.org/2000/svg">
<path d="M10.8546 0.171043C10.6234 -0.0626794 10.2796 -0.0512786 10.0603 0.171043L7.07299 3.10683C6.96632 3.20944 6.90112 3.35766 6.90112 3.48307C6.90112 3.7852 7.12043 3.99042 7.42866 3.99042C7.5768 3.99042 7.69536 3.93911 7.79611 3.8422L9.02898 2.61658L9.98326 1.55628L9.92398 2.87311L9.92398 10.4891C9.92398 10.7855 10.1433 10.9964 10.4574 10.9964C10.7656 10.9964 10.985 10.7855 10.985 10.4891L10.985 2.87311L10.9316 1.55628L11.88 2.61658L13.1187 3.8422C13.2195 3.93912 13.3321 3.99042 13.4862 3.99042C13.7944 3.99042 14.0078 3.7852 14.0078 3.48307C14.0078 3.35766 13.9485 3.20944 13.8419 3.10683L10.8546 0.171043ZM3.16108 10.8311C3.39223 11.0591 3.73601 11.0534 3.96124 10.8311L6.94851 7.89529C7.04932 7.7927 7.11451 7.64448 7.11451 7.51338C7.11451 7.21125 6.90112 7.01171 6.5929 7.01171C6.43878 7.01171 6.32028 7.05734 6.22544 7.15424L4.98662 8.38554L4.03235 9.44585L4.09163 8.12903L4.09163 0.513076C4.09163 0.216647 3.87232 2.6292e-05 3.5641 2.62785e-05C3.25 2.62648e-05 3.03069 0.216647 3.03069 0.513076L3.03069 8.12903L3.08992 9.44585L2.13565 8.38554L0.9028 7.15424C0.802048 7.05734 0.683491 7.01171 0.529379 7.01171C0.221203 7.01171 0.00781123 7.21125 0.00781122 7.51338C0.00781121 7.64448 0.0730072 7.7927 0.17376 7.89529L3.16108 10.8311Z" fill="white"/>
</svg>
