<svg width="22" height="23" viewBox="0 0 22 23" fill="none" xmlns="http://www.w3.org/2000/svg">
<path d="M8.77778 3.77789L11 1.55566M6.55556 16.0001L15.4444 7.11122M11 21.5557L13.2222 19.3334M16 19.3334C17.5341 19.3334 18.7778 18.0898 18.7778 16.5557C18.7778 15.0215 17.5341 13.7779 16 13.7779C14.4659 13.7779 13.2222 15.0215 13.2222 16.5557C13.2222 18.0898 14.4659 19.3334 16 19.3334ZM6 9.33344C7.53412 9.33344 8.77778 8.08979 8.77778 6.55566C8.77778 5.02154 7.53412 3.77789 6 3.77789C4.46588 3.77789 3.22222 5.02154 3.22222 6.55566C3.22222 8.08979 4.46588 9.33344 6 9.33344ZM3.77778 21.5557C5.3119 21.5557 6.55556 20.312 6.55556 18.7779C6.55556 17.2438 5.3119 16.0001 3.77778 16.0001C2.24365 16.0001 1 17.2438 1 18.7779C1 20.312 2.24365 21.5557 3.77778 21.5557ZM18.2222 7.11122C19.7563 7.11122 21 5.86757 21 4.33344C21 2.79932 19.7563 1.55566 18.2222 1.55566C16.6881 1.55566 15.4444 2.79932 15.4444 4.33344C15.4444 5.86757 16.6881 7.11122 18.2222 7.11122Z" stroke="black" stroke-width="1.5" stroke-linecap="round" stroke-linejoin="round"/>
</svg>
