<svg width="16" height="17" viewBox="0 0 16 17" fill="none" xmlns="http://www.w3.org/2000/svg">
<path d="M8.01239 8.50864C10.1921 8.50864 11.9689 6.67711 11.9689 4.44816C11.9689 2.2365 10.2013 0.5 8.01239 0.5C5.84181 0.5 4.05589 2.27106 4.05589 4.46544C4.06505 6.68575 5.83265 8.50864 8.01239 8.50864ZM8.01239 7.2041C6.67524 7.2041 5.53042 5.9946 5.53042 4.46544C5.53042 2.9622 6.65693 1.80454 8.01239 1.80454C9.37702 1.80454 10.4944 2.94492 10.4944 4.44816C10.4944 5.97732 9.3587 7.2041 8.01239 7.2041ZM2.25166 16.5H13.764C15.2843 16.5 16.0078 16.068 16.0078 15.1177C16.0078 12.8542 12.9763 9.57991 8.01239 9.57991C3.03929 9.57991 0.0078125 12.8542 0.0078125 15.1177C0.0078125 16.068 0.731339 16.5 2.25166 16.5ZM1.82121 15.1955C1.58308 15.1955 1.48234 15.135 1.48234 14.9536C1.48234 13.5367 3.80861 10.8844 8.01239 10.8844C12.207 10.8844 14.5333 13.5367 14.5333 14.9536C14.5333 15.135 14.4417 15.1955 14.2036 15.1955H1.82121Z" fill="black"/>
</svg>
